<?xml version="1.0" encoding="UTF-8" standalone="no"?>
<!-- Generator: Adobe Illustrator 22.0.1, SVG Export Plug-In . SVG Version: 6.00 Build 0)  -->

<svg
   version="1.1"
   id="Layer_1"
   x="0px"
   y="0px"
   viewBox="0 0 269 57"
   style="enable-background:new 0 0 269 57;"
   xml:space="preserve"
   sodipodi:docname="chop-logo-white.svg"
   inkscape:version="1.3.2 (091e20e, 2023-11-25, custom)"
   xmlns:inkscape="http://www.inkscape.org/namespaces/inkscape"
   xmlns:sodipodi="http://sodipodi.sourceforge.net/DTD/sodipodi-0.dtd"
   xmlns="http://www.w3.org/2000/svg"
   xmlns:svg="http://www.w3.org/2000/svg"><defs
   id="defs4">
	
	
	
	
</defs><sodipodi:namedview
   id="namedview4"
   pagecolor="#ffffff"
   bordercolor="#cccccc"
   borderopacity="1"
   inkscape:showpageshadow="0"
   inkscape:pageopacity="1"
   inkscape:pagecheckerboard="0"
   inkscape:deskcolor="#d1d1d1"
   inkscape:zoom="3.8550186"
   inkscape:cx="134.5"
   inkscape:cy="28.404532"
   inkscape:window-width="1920"
   inkscape:window-height="1121"
   inkscape:window-x="-9"
   inkscape:window-y="-9"
   inkscape:window-maximized="1"
   inkscape:current-layer="Layer_1" />
<style
   type="text/css"
   id="style1">
	@media (prefers-color-scheme: dark) {
      .st0 {
         fill: white;
      }
   }
</style>
<path
   class="st0"
   d="m 29.5,51.2 h 7.4 V 37 c -0.6,0.6 -4.7,4.1 -7.4,5.4 z"
   id="path1" /><path
   class="st0"
   d="m 54.2,14 v 12.9 c -2.7,-1.3 -5.7,-2 -8.9,-2 -3,0 -5.9,0.7 -8.5,1.8 V 14 h -7.4 v 18.1 c -0.4,0.3 -0.7,0.5 -0.7,0.5 -2.2,1.6 -5,2.6 -7.9,2.6 C 13.3,35.2 7.3,29.1 7.3,21.7 7.3,14.3 13.5,8.1 21,8.1 c 2.7,0 5.1,0.8 7.2,2.1 V 2 C 26,1.2 23.5,0.7 21,0.7 9.5,0.7 0.1,10.1 0.1,21.6 c 0,11.5 9.3,20.9 20.9,20.9 2.8,0 5.1,-0.5 7.9,-1.6 0.2,-0.1 0.4,-0.2 0.7,-0.3 2.6,-1.3 6.7,-4.9 7.4,-5.4 0.1,0 0.1,-0.1 0.1,-0.1 2.3,-1.8 5.2,-2.9 8.4,-2.9 3.4,0 6.5,1.3 8.9,3.3 v 15.6 h 7.4 V 14 Z"
   id="path2" /><path
   class="st0"
   d="m 13.8,23.1 c 0.1,-0.3 0,-0.6 0,-0.9 0,-0.7 -0.1,-1.3 -0.2,-2 -0.2,-1.6 -0.2,-3.2 0.7,-4.6 0.2,-0.3 0.4,-0.6 0.7,-0.9 0,0 0,0 0.1,0 1,-1 2.5,-1.6 4.2,-1.7 0.5,0 1.3,0 2.2,0.3 0.7,0.2 1.3,0.4 2,0.8 0.3,0.1 0.6,0.4 0.8,0.5 0.3,0.2 0.5,0.4 0.7,0.7 0.4,0.6 0.7,1.5 0.3,2.3 l -0.1,0.2 -0.1,0.2 v -0.4 c 0,0.1 -0.2,0.4 -0.3,0.4 v 0 c 0,0.2 -0.1,0.3 -0.1,0.4 -0.1,0.3 -0.2,0.4 -0.3,0.7 v 0.1 c 0.3,0 0.3,-0.2 0.3,-0.1 0,0.1 -0.2,0.2 -0.3,0.2 0,0.5 0.5,1.1 0.6,1.2 0.2,0.2 0.4,0.4 0.5,0.5 0.2,0.3 -0.4,0.7 -0.5,0.8 0.1,0.2 0.2,0.2 0.2,0.4 0.1,0.2 -0.4,0.3 -0.3,0.4 0.1,0.1 0.1,0.4 0,0.5 -0.4,0.3 -0.3,0.4 -0.2,0.9 0.1,0.6 -0.2,0.8 -0.7,0.9 -0.4,0.1 -1.5,-0.3 -1.9,-0.1 v 0 c -0.8,0.6 -1.5,1.9 0.7,5 0.2,0.2 0.8,0.9 0.4,0.9 -1.6,0 -4.2,-3.4 -7.9,-1.2 -0.5,0.3 1.6,-2.7 2,-4.3 -0.3,0 -0.6,-0.2 -1,-0.5 0,0.2 0.2,0.3 0.3,0.5 0,0 -0.1,0 -0.2,0 -0.1,0 -0.1,0 -0.2,0 -0.4,0 -0.9,-0.1 -1.3,-0.3 -0.2,-0.1 -0.3,-0.4 -0.4,-0.6 0,-0.1 -0.1,-0.4 -0.1,-0.6 0,0.1 -0.1,0.3 -0.3,0.4 -0.2,0.1 -0.4,0.2 -0.7,0.1 0.2,-0.3 0.3,-0.7 0.4,-1.1 z"
   id="path3" /><path
   class="st0"
   d="m 84.7,25.6 c 0.3,-0.5 0.6,-0.9 1.3,-0.9 0.7,0 1.5,0.6 1.5,1.4 0,0.3 0,0.5 -0.2,0.8 -0.9,2.2 -3.3,3.5 -5.8,3.5 -3.7,0 -6.3,-2.7 -6.6,-6.2 -0.1,-1.2 -0.1,-2.4 0,-3.5 0.3,-3.5 2.9,-6.3 6.6,-6.3 2.5,0 4.8,1.3 5.8,3.5 0.1,0.4 0.2,0.6 0.2,0.8 0,0.8 -0.8,1.4 -1.5,1.4 -0.7,0 -1.1,-0.4 -1.3,-0.9 -0.6,-1.2 -1.8,-1.9 -3.1,-1.9 -2.1,0 -3.5,1.6 -3.6,3.7 -0.1,0.9 -0.1,1.9 0,2.8 0.2,2.2 1.5,3.7 3.6,3.7 1.4,0.1 2.5,-0.7 3.1,-1.9 z m 8.6,-6.5 c 0.5,-0.4 1.6,-0.9 2.8,-0.9 2.8,0 4.4,1.7 4.4,4.8 v 5.7 c 0,0.9 -0.6,1.6 -1.5,1.6 -0.8,0 -1.5,-0.7 -1.5,-1.6 v -5.5 c 0,-1.3 -0.8,-2.1 -2,-2.1 -0.9,0 -1.8,0.4 -2.3,0.9 v 6.7 c 0,0.8 -0.6,1.5 -1.5,1.5 -0.8,0 -1.5,-0.7 -1.5,-1.5 V 15.9 c 0,-0.9 0.6,-1.5 1.5,-1.5 0.8,0 1.5,0.7 1.5,1.5 v 3.2 z m 11.8,-2 c -0.9,0 -1.6,-0.7 -1.6,-1.6 0,-0.9 0.7,-1.6 1.6,-1.6 0.9,0 1.6,0.7 1.6,1.6 0,0.9 -0.7,1.6 -1.6,1.6 z m 1.5,2.8 v 8.9 c 0,0.8 -0.6,1.5 -1.5,1.5 -0.8,0 -1.5,-0.7 -1.5,-1.5 v -8.9 c 0,-0.9 0.6,-1.5 1.5,-1.5 0.9,-0.1 1.5,0.6 1.5,1.5 z m 6.2,-3.9 v 12.8 c 0,0.8 -0.6,1.5 -1.5,1.5 -0.8,0 -1.5,-0.7 -1.5,-1.5 V 16 c 0,-0.9 0.6,-1.5 1.5,-1.5 0.9,-0.1 1.5,0.6 1.5,1.5 z m 7.7,2.3 c 0.9,0 1.9,0.3 2.6,0.6 V 16 c 0,-0.9 0.7,-1.5 1.5,-1.5 0.8,0 1.5,0.7 1.5,1.5 v 12 c 0,0.5 -0.1,0.8 -0.5,1 -0.6,0.4 -2.4,1.4 -4.6,1.4 -3.1,0 -5,-1.9 -5.2,-4.6 -0.1,-0.8 -0.1,-2.2 0,-3 0.2,-2.8 1.8,-4.5 4.7,-4.5 z m 0.5,9.3 c 0.8,0 1.8,-0.4 2.1,-0.7 v -5.2 c -0.4,-0.2 -1.3,-0.6 -2.3,-0.6 -1.4,0 -2.1,0.8 -2.2,2.1 0,0.5 0,1.5 0,2.1 0.1,1.5 1,2.3 2.4,2.3 z M 136.3,20 c 0,0.6 -0.5,1.4 -1.4,1.4 -0.5,0 -1,-0.2 -1.7,-0.2 -0.7,0 -1.1,0.4 -1.1,1.4 v 6.2 c 0,0.8 -0.6,1.5 -1.5,1.5 -0.8,0 -1.5,-0.7 -1.5,-1.5 V 22 c 0,-2.3 1.3,-3.8 3.9,-3.8 0.7,0 1.5,0.1 1.9,0.2 0.9,0.3 1.4,0.8 1.4,1.6 z m 11.5,3.9 c 0,0.9 -0.4,1.5 -1.5,1.5 h -5.9 v 0.2 c 0,1.4 1.1,2.1 2.5,2.1 0.8,0 1.6,-0.2 2.4,-0.5 1.2,-0.4 1.9,0.4 1.9,1.2 0,0.4 -0.2,0.9 -0.7,1.2 -0.8,0.5 -2.2,0.8 -3.6,0.8 -3,0 -5.1,-1.9 -5.3,-4.7 -0.1,-0.9 0,-2.1 0,-2.8 0.3,-2.9 2.3,-4.7 5.2,-4.7 3,0 5,2 5,5.1 z m -3.1,-0.6 c 0.2,0 0.2,-0.1 0.2,-0.3 0.1,-1.3 -0.8,-2.2 -2.2,-2.2 -1.6,0 -2.3,1 -2.3,2.5 z m 15.9,5.5 c 0,0.8 -0.6,1.5 -1.5,1.5 -0.8,0 -1.5,-0.7 -1.5,-1.5 v -5.6 c 0,-1.4 -1,-2.1 -2.1,-2.1 -0.9,0 -1.7,0.3 -2.2,0.5 v 7.1 c 0,0.8 -0.6,1.5 -1.5,1.5 -0.8,0 -1.5,-0.7 -1.5,-1.5 v -8.2 c 0,-0.5 0.2,-0.8 0.5,-1.1 0.7,-0.5 2.3,-1.2 4.7,-1.2 3.3,0 5,1.7 5,4.8 v 5.8 z m 4.9,-11.7 c 0,0.8 -0.1,1.8 -0.6,2.6 -0.3,0.5 -0.8,0.9 -1.4,0.9 -0.7,0 -1.2,-0.6 -1.2,-1.2 0,-0.7 0.6,-1 0.6,-2.2 v -1.3 c 0,-0.7 0.6,-1.3 1.3,-1.3 0.7,0 1.3,0.6 1.3,1.3 z m 10.2,9.5 c 0,2.5 -2,3.8 -4.6,3.8 -2.1,0 -3.4,-0.6 -4.2,-1.3 -0.5,-0.4 -0.7,-1.3 -0.3,-1.8 0.4,-0.6 1.2,-0.7 1.9,-0.3 0.7,0.4 1.6,0.7 2.6,0.7 1.1,0 1.7,-0.4 1.7,-1 0,-0.5 -0.4,-0.8 -1.3,-1 -0.8,-0.2 -0.8,-0.2 -1.6,-0.4 -1.8,-0.5 -3.2,-1.5 -3.2,-3.4 0,-2.4 1.9,-3.7 4.5,-3.7 1.4,0 2.8,0.4 3.6,1 0.6,0.5 0.6,1.4 0.1,2 -0.4,0.5 -1.2,0.5 -1.9,0.2 -0.6,-0.3 -1.3,-0.5 -1.9,-0.5 -1.1,0 -1.6,0.4 -1.6,0.9 0,0.5 0.3,0.8 1.3,1 l 1.6,0.4 c 2.2,0.5 3.3,1.6 3.3,3.4 z m 8,-10.5 c 0,-0.9 0.7,-1.5 1.5,-1.5 0.9,0 1.5,0.7 1.5,1.5 V 21 h 7 v -4.9 c 0,-0.9 0.7,-1.5 1.5,-1.5 0.9,0 1.5,0.7 1.5,1.5 v 12.6 c 0,0.9 -0.6,1.6 -1.5,1.6 -0.8,0 -1.5,-0.7 -1.5,-1.6 v -4.8 h -7 v 4.8 c 0,0.9 -0.6,1.5 -1.5,1.5 -0.8,0 -1.5,-0.7 -1.5,-1.5 z m 21.2,14.3 c -2.9,0 -5.1,-1.8 -5.3,-4.5 -0.1,-0.9 -0.1,-2.3 0,-3.1 0.2,-2.6 2.4,-4.5 5.3,-4.5 2.9,0 5,1.8 5.3,4.5 0.1,0.9 0.1,2.2 0,3.1 -0.2,2.6 -2.3,4.5 -5.3,4.5 z m 2.4,-7.2 c -0.1,-1.3 -0.9,-2.1 -2.3,-2.1 -1.4,0 -2.2,0.9 -2.4,2.1 0,0.6 0,1.6 0,2.2 0.1,1.3 1,2.1 2.4,2.1 1.4,0 2.2,-0.9 2.3,-2.1 0,-0.5 0,-1.6 0,-2.2 z m 14.4,3.4 c 0,2.5 -2,3.8 -4.6,3.8 -2.1,0 -3.4,-0.6 -4.2,-1.3 -0.5,-0.4 -0.7,-1.3 -0.3,-1.8 0.4,-0.6 1.2,-0.7 1.9,-0.3 0.7,0.4 1.6,0.7 2.6,0.7 1.1,0 1.7,-0.4 1.7,-1 0,-0.5 -0.4,-0.8 -1.3,-1 -0.8,-0.2 -0.8,-0.2 -1.6,-0.4 -1.8,-0.5 -3.2,-1.5 -3.2,-3.4 0,-2.4 1.9,-3.7 4.5,-3.7 1.4,0 2.8,0.4 3.6,1 0.6,0.5 0.6,1.4 0.1,2 -0.4,0.5 -1.2,0.5 -1.9,0.2 -0.6,-0.3 -1.3,-0.5 -1.9,-0.5 -1.1,0 -1.6,0.4 -1.6,0.9 0,0.5 0.3,0.8 1.3,1 l 1.6,0.4 c 2.2,0.5 3.3,1.6 3.3,3.4 z m 7.8,3.8 c -1,0 -1.7,-0.2 -2.5,-0.6 v 3.3 c 0,0.9 -0.7,1.5 -1.5,1.5 -0.8,0 -1.5,-0.7 -1.5,-1.5 V 20.5 c 0,-0.3 0.1,-0.6 0.4,-0.7 0.7,-0.5 2.5,-1.4 4.8,-1.4 3,0 4.9,1.9 5.2,4.6 0.1,0.8 0.1,2.2 0,3 -0.2,2.6 -2,4.4 -4.9,4.4 z m -0.3,-9.3 c -0.8,0 -1.8,0.4 -2.2,0.7 V 27 c 0.4,0.2 1.3,0.6 2.2,0.6 1.5,0 2.1,-0.8 2.2,-2.1 0,-0.5 0,-1.5 0,-2.1 -0.1,-1.5 -0.8,-2.3 -2.2,-2.3 z m 9.6,-4 c -0.9,0 -1.6,-0.7 -1.6,-1.6 0,-0.9 0.7,-1.6 1.6,-1.6 0.9,0 1.6,0.7 1.6,1.6 0,0.9 -0.7,1.6 -1.6,1.6 z m 1.5,2.8 v 8.9 c 0,0.8 -0.6,1.5 -1.5,1.5 -0.8,0 -1.5,-0.7 -1.5,-1.5 v -8.9 c 0,-0.9 0.6,-1.5 1.5,-1.5 0.8,-0.1 1.5,0.6 1.5,1.5 z m 7.1,10.5 c -2.7,0 -4,-1.9 -4,-4.3 v -8.7 c 0,-0.9 0.6,-1.5 1.5,-1.5 0.8,0 1.5,0.7 1.5,1.5 v 1.5 h 2.8 c 0.7,0 1.4,0.6 1.4,1.3 0,0.7 -0.6,1.3 -1.4,1.3 h -2.8 V 26 c 0,1.1 0.5,1.6 1.4,1.6 0.5,0 1,-0.1 1.4,-0.2 1.1,-0.3 1.8,0.4 1.8,1.3 0,0.5 -0.2,1 -0.9,1.3 -0.8,0.3 -1.8,0.4 -2.7,0.4 z m 14.8,-2.3 c 0,0.5 -0.1,0.8 -0.5,1 -0.6,0.4 -2.2,1.2 -4.6,1.2 -3.2,0 -4.6,-1.8 -4.6,-3.9 0,-1.9 1.3,-3.6 4.5,-3.6 1,0 1.6,0.1 2.4,0.3 v -0.6 c 0,-1.1 -0.6,-1.7 -2.1,-1.7 -0.8,0 -1.6,0.2 -2.1,0.4 -1.3,0.4 -2,-0.2 -2,-1.1 0,-0.5 0.2,-1 1,-1.3 0.6,-0.3 1.9,-0.6 3.2,-0.6 3.1,0 4.9,1.4 4.9,4.5 z m -2.8,-0.8 v -2 c -0.7,-0.2 -1.4,-0.4 -2.2,-0.4 -1.2,0 -1.9,0.6 -1.9,1.4 0,1 0.8,1.5 2,1.5 1.2,0 1.8,-0.3 2.1,-0.5 z M 268.2,16 v 12.8 c 0,0.8 -0.6,1.5 -1.5,1.5 -0.8,0 -1.5,-0.7 -1.5,-1.5 V 16 c 0,-0.9 0.6,-1.5 1.5,-1.5 0.8,-0.1 1.5,0.6 1.5,1.5 z M 80.3,52.4 c -2.9,0 -5.1,-1.8 -5.3,-4.5 0,-0.9 0,-2.2 0,-3.1 0.2,-2.6 2.4,-4.5 5.3,-4.5 2.9,0 5,1.8 5.3,4.5 0.1,0.9 0.1,2.2 0,3.1 -0.3,2.6 -2.4,4.5 -5.3,4.5 z m 2.3,-7.2 c -0.1,-1.3 -0.9,-2.1 -2.3,-2.1 -1.4,0 -2.2,0.9 -2.4,2.1 0,0.6 0,1.6 0,2.2 0.1,1.3 1,2.1 2.4,2.1 1.4,0 2.2,-0.9 2.3,-2.1 0.1,-0.5 0.1,-1.6 0,-2.2 z m 6.6,-4.9 c 0,-2.7 1.5,-4.1 3.9,-4.1 0.8,0 1.7,0.1 2.2,0.3 0.7,0.2 1.1,0.7 1.1,1.4 0,0.7 -0.5,1.3 -1.4,1.3 -0.5,0 -1,-0.2 -1.7,-0.2 -0.8,0 -1.3,0.5 -1.3,1.4 v 0.5 h 2.6 c 0.7,0 1.3,0.5 1.3,1.3 0,0.7 -0.6,1.3 -1.3,1.3 H 92 v 7.3 c 0,0.9 -0.6,1.6 -1.5,1.6 -0.8,0 -1.5,-0.7 -1.5,-1.6 v -7.3 h -0.5 c -0.8,0 -1.4,-0.6 -1.4,-1.3 0,-0.8 0.6,-1.3 1.4,-1.3 H 89 v -0.6 z m 18.4,6.9 v 3.6 c 0,0.8 -0.7,1.6 -1.5,1.6 -0.8,0 -1.5,-0.7 -1.5,-1.6 V 38.6 c 0,-1.1 0.7,-2 2,-2 h 4.4 c 2.9,0 5.4,1.9 5.4,5.2 0,3.3 -2.4,5.2 -5.6,5.2 h -3.2 z m 3.1,-3 c 1.8,0 2.6,-0.9 2.6,-2.3 0,-1.5 -0.8,-2.3 -2.6,-2.3 h -3.2 v 4.6 z m 10.9,-3.1 c 0.5,-0.4 1.6,-0.9 2.8,-0.9 2.8,0 4.4,1.7 4.4,4.8 v 5.7 c 0,0.9 -0.6,1.6 -1.5,1.6 -0.8,0 -1.5,-0.7 -1.5,-1.6 v -5.5 c 0,-1.3 -0.8,-2.1 -2,-2.1 -0.9,0 -1.8,0.4 -2.3,0.9 v 6.7 c 0,0.8 -0.6,1.5 -1.5,1.5 -0.8,0 -1.5,-0.7 -1.5,-1.5 V 37.9 c 0,-0.9 0.6,-1.5 1.5,-1.5 0.8,0 1.5,0.7 1.5,1.5 z m 11.8,-2 c -0.9,0 -1.6,-0.7 -1.6,-1.6 0,-0.9 0.7,-1.6 1.6,-1.6 0.9,0 1.6,0.7 1.6,1.6 0,0.9 -0.7,1.6 -1.6,1.6 z m 1.5,2.8 v 8.9 c 0,0.8 -0.6,1.5 -1.5,1.5 -0.8,0 -1.5,-0.7 -1.5,-1.5 v -8.9 c 0,-0.9 0.6,-1.5 1.5,-1.5 0.8,0 1.5,0.6 1.5,1.5 z m 6.2,-3.9 v 12.8 c 0,0.8 -0.6,1.5 -1.5,1.5 -0.8,0 -1.5,-0.7 -1.5,-1.5 V 38 c 0,-0.9 0.6,-1.5 1.5,-1.5 0.9,-0.1 1.5,0.6 1.5,1.5 z m 12.5,12.1 c 0,0.5 -0.1,0.8 -0.5,1 -0.6,0.4 -2.2,1.2 -4.6,1.2 -3.2,0 -4.6,-1.8 -4.6,-3.9 0,-1.9 1.3,-3.6 4.5,-3.6 1,0 1.6,0.1 2.4,0.3 v -0.6 c 0,-1.1 -0.6,-1.7 -2.1,-1.7 -0.8,0 -1.6,0.2 -2.1,0.4 -1.3,0.4 -2,-0.2 -2,-1.1 0,-0.5 0.2,-1 1,-1.3 0.6,-0.3 1.9,-0.6 3.2,-0.6 3.1,0 4.9,1.4 4.9,4.5 z m -2.9,-0.8 v -2 c -0.7,-0.2 -1.4,-0.4 -2.2,-0.4 -1.2,0 -1.9,0.6 -1.9,1.4 0,1 0.8,1.5 2,1.5 1.2,0.1 1.9,-0.3 2.1,-0.5 z m 10.4,-9 c 0.9,0 1.9,0.3 2.6,0.6 V 38 c 0,-0.9 0.7,-1.5 1.5,-1.5 0.8,0 1.5,0.7 1.5,1.5 v 12 c 0,0.5 -0.1,0.8 -0.5,1 -0.6,0.4 -2.4,1.4 -4.6,1.4 -3.1,0 -5,-1.9 -5.2,-4.6 -0.1,-0.8 -0.1,-2.2 0,-3 0.1,-2.8 1.8,-4.5 4.7,-4.5 z m 0.4,9.3 c 0.8,0 1.8,-0.4 2.1,-0.7 v -5.2 c -0.4,-0.2 -1.3,-0.6 -2.3,-0.6 -1.4,0 -2.1,0.8 -2.2,2.1 0,0.5 0,1.5 0,2.1 0.2,1.5 1,2.3 2.4,2.3 z m 18.3,-3.7 c 0,0.9 -0.4,1.5 -1.5,1.5 h -5.9 v 0.2 c 0,1.4 1.1,2.1 2.5,2.1 0.8,0 1.6,-0.2 2.4,-0.5 1.2,-0.4 1.9,0.4 1.9,1.2 0,0.4 -0.2,0.9 -0.7,1.2 -0.8,0.5 -2.2,0.8 -3.6,0.8 -3,0 -5.1,-1.9 -5.3,-4.7 -0.1,-0.9 0,-2.1 0,-2.8 0.3,-2.9 2.3,-4.7 5.2,-4.7 3,0 5,2 5,5.1 z m -3.1,-0.6 c 0.2,0 0.2,-0.1 0.2,-0.3 0.1,-1.3 -0.8,-2.2 -2.2,-2.2 -1.6,0 -2.3,1 -2.3,2.5 z m 8.7,-7.3 v 12.8 c 0,0.8 -0.6,1.5 -1.5,1.5 -0.8,0 -1.5,-0.7 -1.5,-1.5 V 38 c 0,-0.9 0.6,-1.5 1.5,-1.5 0.8,-0.1 1.5,0.6 1.5,1.5 z m 8.5,14.4 c -1,0 -1.7,-0.2 -2.5,-0.6 v 3.3 c 0,0.9 -0.7,1.5 -1.5,1.5 -0.8,0 -1.5,-0.7 -1.5,-1.5 V 42.5 c 0,-0.3 0.1,-0.6 0.4,-0.7 0.7,-0.5 2.5,-1.4 4.8,-1.4 3,0 4.9,1.9 5.2,4.6 0.1,0.8 0.1,2.2 0,3 -0.2,2.6 -1.9,4.4 -4.9,4.4 z m -0.3,-9.3 c -0.8,0 -1.8,0.4 -2.2,0.7 V 49 c 0.4,0.2 1.3,0.6 2.2,0.6 1.5,0 2.1,-0.8 2.2,-2.1 0,-0.5 0,-1.5 0,-2.1 0,-1.5 -0.8,-2.3 -2.2,-2.3 z m 11,-2 c 0.5,-0.4 1.6,-0.9 2.8,-0.9 2.8,0 4.4,1.7 4.4,4.8 v 5.7 c 0,0.9 -0.6,1.6 -1.5,1.6 -0.8,0 -1.5,-0.7 -1.5,-1.6 v -5.5 c 0,-1.3 -0.8,-2.1 -2,-2.1 -0.9,0 -1.8,0.4 -2.3,0.9 v 6.7 c 0,0.8 -0.6,1.5 -1.5,1.5 -0.8,0 -1.5,-0.7 -1.5,-1.5 V 37.9 c 0,-0.9 0.6,-1.5 1.5,-1.5 0.8,0 1.5,0.7 1.5,1.5 v 3.2 z m 11.9,-2 c -0.9,0 -1.6,-0.7 -1.6,-1.6 0,-0.9 0.7,-1.6 1.6,-1.6 0.9,0 1.6,0.7 1.6,1.6 -0.1,0.9 -0.8,1.6 -1.6,1.6 z m 1.4,2.8 v 8.9 c 0,0.8 -0.6,1.5 -1.5,1.5 -0.8,0 -1.5,-0.7 -1.5,-1.5 v -8.9 c 0,-0.9 0.6,-1.5 1.5,-1.5 0.9,0 1.5,0.6 1.5,1.5 z m 12.6,8.2 c 0,0.5 -0.1,0.8 -0.5,1 -0.6,0.4 -2.2,1.2 -4.6,1.2 -3.2,0 -4.6,-1.8 -4.6,-3.9 0,-1.9 1.3,-3.6 4.5,-3.6 1,0 1.6,0.1 2.4,0.3 v -0.6 c 0,-1.1 -0.6,-1.7 -2.1,-1.7 -0.8,0 -1.6,0.2 -2.1,0.4 -1.3,0.4 -2,-0.2 -2,-1.1 0,-0.5 0.2,-1 1,-1.3 0.6,-0.3 1.9,-0.6 3.2,-0.6 3.1,0 4.9,1.4 4.9,4.5 v 5.4 z m -2.9,-0.8 v -2 c -0.7,-0.2 -1.4,-0.4 -2.2,-0.4 -1.2,0 -1.9,0.6 -1.9,1.4 0,1 0.8,1.5 2,1.5 1.2,0.1 1.9,-0.3 2.1,-0.5 z m 6.2,-5 c -1.1,0 -1.9,-0.8 -1.9,-1.7 0,-0.2 0,-0.4 0,-0.6 0,-1 0.9,-1.7 1.9,-1.7 1,0 1.9,0.7 1.9,1.7 0,0.2 0,0.4 0,0.6 0,1 -0.9,1.7 -1.9,1.7 z m 1.5,-2.3 c -0.1,-0.8 -0.7,-1.4 -1.5,-1.4 -0.8,0 -1.4,0.5 -1.5,1.4 0,0.2 0,0.4 0,0.6 0.1,0.8 0.7,1.4 1.5,1.4 0.8,0 1.4,-0.5 1.5,-1.4 0,-0.2 0,-0.4 0,-0.6 z m -1.5,0.6 c 0,-0.1 -0.1,-0.1 -0.1,-0.1 h -0.3 v 0.6 c 0,0.1 -0.1,0.2 -0.2,0.2 -0.1,0 -0.2,-0.1 -0.2,-0.2 v -1.7 c 0,-0.1 0.1,-0.2 0.3,-0.2 h 0.7 c 0.4,0 0.8,0.2 0.8,0.6 0,0.3 -0.2,0.5 -0.5,0.6 l 0.5,0.6 0.1,0.1 c 0,0.1 -0.1,0.2 -0.2,0.2 -0.1,0 -0.1,0 -0.1,-0.1 z m 0.1,-0.4 c 0.3,0 0.4,-0.1 0.4,-0.3 0,-0.2 -0.1,-0.3 -0.4,-0.3 h -0.5 v 0.6 z"
   id="path4" />
</svg>
